<svg width="16" height="16" viewBox="0 0 260 260" fill="none" xmlns="http://www.w3.org/2000/svg">
<style>
    path {
        fill: #27312E;
    }
    @media (prefers-color-scheme: dark) {
        path {
            fill: #fff;
        }
    }
</style>
<path fill-rule="evenodd" clip-rule="evenodd" d="M0 69.5599C0 31.143 31.143 0 69.5598 0H190.44C228.857 0 260 31.143 260 69.5599C260 95.4403 245.866 118.02 224.896 130C245.866 141.98 260 164.56 260 190.44C260 228.857 228.857 260 190.44 260H69.5599C31.143 260 0 228.857 0 190.44C0 164.56 14.1338 141.98 35.1038 130C14.1338 118.02 0 95.4403 0 69.5599ZM69.5599 120.88H143.483C129.591 108.163 120.879 89.8786 120.879 69.5599C120.879 49.2411 129.591 30.9571 143.483 18.2394H69.5598C41.2164 18.2394 18.2394 41.2164 18.2394 69.5599C18.2394 97.9033 41.2164 120.88 69.5599 120.88ZM116.516 241.761H190.44C218.784 241.761 241.761 218.784 241.761 190.44C241.761 162.097 218.784 139.12 190.44 139.12H116.516C130.408 151.837 139.12 170.121 139.12 190.44C139.12 210.759 130.408 229.043 116.516 241.761Z" />
</svg>
